<svg xmlns="http://www.w3.org/2000/svg" viewBox="0 0 32 32" width="32" height="32">
  <defs>
    <linearGradient id="worship-tile" x1="0" y1="0" x2="1" y2="1">
      <stop offset="0" stop-color="#10b981"/>
      <stop offset="1" stop-color="#0d9488"/>
    </linearGradient>
  </defs>
  <rect width="32" height="32" rx="8" fill="url(#worship-tile)"/>
  <path d="M16 4.5c.45 3.4 1.95 4.95 3.25 6.5 1.55 1.85 2.85 3.75 2.85 6.55a6.1 6.1 0 1 1-12.2 0c0-1.7.63-3 1.55-4.2.16 1.18.85 1.95 1.78 2.1-.9-2.75-.04-6.15 2.77-10.95Z" fill="#ffffff"/>
  <path d="M16 14.2c1.18 1.7 2.35 2.9 2.35 4.85a2.35 2.35 0 1 1-4.7 0c0-1.25.5-2.2 1.18-3.15.77.8 1.17.45 1.17-1.7Z" fill="#ffffff" fill-opacity="0.35"/>
</svg>
